# xmcd
#
# Track frame offsets:
#	150
#	15763
#	28799
#	45088
#	58303
#	72176
#	90923
#	107278
#	121894
#	135430
#	153948
#	168848
#
# Disc length: 2405 seconds
#
# Revision: 1
# Processed by: cddbd v1.5.2PL0 Copyright (c) Steve Scherf et al.
# Submitted via: EZCDAudioConverter 4.0.5.1
#
DISCID=7d09630c
DTITLE=Bruno and Marrone - Vol. 1
DYEAR=1994
DGENRE=Sertanejo
TTITLE0=Dormi na Praça
TTITLE1=Diga
TTITLE2=Não Vê Que Te Amo (Together)
TTITLE3=É Nisso Que Dá
TTITLE4=A Saudade Não Passa
TTITLE5=Ela Me Faz Chorar
TTITLE6=Como Ficar Sem Você
TTITLE7=Explosão de Amor
TTITLE8=Eu Te Peguei Outra Vez
TTITLE9=Não Dá Pra viver Sem Você
TTITLE10=Só Dá Ela
TTITLE11=Pedaço de Poema
EXTD=
EXTT0=
EXTT1=
EXTT2=
EXTT3=
EXTT4=
EXTT5=
EXTT6=
EXTT7=
EXTT8=
EXTT9=
EXTT10=
EXTT11=
PLAYORDER=
